<svg version="1.0" xmlns="http://www.w3.org/2000/svg" width="4037.333" height="4037.333" viewBox="0 0 3028 3028"><path d="M1630.7 202.6c-.1.1-7.8.4-17.2.8-9.3.3-18.3.8-20 1-1.6.2-6.6.7-11 1.1-4.4.3-8.7.8-9.5 1-.8.2-4.2.6-7.5 1-3.3.3-8.5 1-11.5 1.5s-7.3 1.2-9.5 1.5c-2.2.4-8.7 1.5-14.5 2.6-5.8 1.1-11.6 2.2-13 2.5-17.3 3.3-50.2 12.1-71 19.1-52.9 17.6-94.8 45.7-122.1 81.8-13.8 18.3-28.1 44.9-35.9 66.5-.6 1.9-1.6 4.4-2.1 5.5-3.1 7.1-11.9 43.1-13.4 55-.4 2.7-.8 5.7-1 6.5-.2.8-.7 5.5-1.1 10.5-.3 4.9-.8 9.7-1 10.5-.1.8-.3 2.1-.3 2.7-.1.7-1.3 1.3-2.9 1.3-8.7 0-51.3 9.1-70.7 15.1-17.5 5.4-20.7 6.5-35 11.9-43 16-87 39.1-128 66.9-61.5 41.8-95.7 76.8-117.8 120.8-8.8 17.7-15.9 40-19.1 60.3-.3 1.4-.8 4.5-1.2 7-.4 2.5-.9 5.8-1.1 7.5-.2 1.6-.6 13.3-.7 26-.4 31.9 2.6 55.2 11 85.3 3.8 13.5 11.5 35.4 14.6 41.5 1.1 2.2 1.8 4 1.6 4.2-.2.2-4.4 3-9.4 6.4-19.1 12.7-34.6 32.5-43.5 55.6-.9 2.4-3.2 9.6-3.5 11-.1.5-.4 2.1-.7 3.5-.3 1.4-.8 3.6-1.1 5-2.1 9.3-2.8 28.7-1.5 39.1 1.3 9.7 4.8 23.3 7.5 29.6 5.6 12.7 17.8 27.8 29.9 37.3 3.2 2.5 6.8 5.4 8.2 6.5l2.3 2-2.1 7.5c-1.2 4.1-2.3 8.4-2.5 9.5-.1 1.1-1.2 6.3-2.4 11.5s-2.3 10.6-2.5 12c-.2 1.4-.6 4.7-1 7.5-.3 2.7-.8 6-1 7.3-1.8 11.3-2.5 45.6-1.1 58.7.4 3.3.9 8.7 1.2 12 .9 9.6 5.2 32.1 8.4 44.1 6.7 25.2 18.2 51.5 30.4 69.6 3.6 5.4 6.4 9.8 6.1 9.8-.2 0-2.6-.5-5.3-1.1-11.8-2.5-29.5-1.2-42.5 3.2-24.6 8.2-50.2 28.7-73.4 58.9-27.1 35.3-41.5 69-46.2 108-1.3 10.6-.5 35.8 1.4 46.5 8.8 50 38.9 89.7 84 110.9 20.1 9.5 52 17.3 73 18 3.9.1 7.5.5 8 .8.6.4 1.7.3 2.5-.2s2.1-.5 3.1 0c.9.5 1.9.7 2.2.3.4-.3 3.9-.7 7.9-.9 8.2-.4 10.5-.7 24.3-2.9 5.4-.8 9.9-1.4 10-1.3.1.2 2.1 5.2 4.4 11.3 2.4 6 4.9 12.3 5.6 14 .7 1.6 3.2 7.9 5.5 14 2.3 6 4.8 12.3 5.6 14 .7 1.6 3.3 8.2 5.7 14.5 2.5 6.3 8 20.3 12.2 31 4.2 10.7 8.8 22.4 10.2 26 1.4 3.6 3.1 7.8 3.8 9.5.7 1.6 5.8 14.5 11.3 28.5 5.6 14 13.9 35.2 18.5 47 4.7 11.8 27.8 70.5 51.5 130.5 39.8 100.8 50.9 129 62.9 159.5 2.5 6.3 5.1 12.8 5.8 14.5.7 1.6 7.4 18.5 14.9 37.5 7.4 19 20.5 52.3 29.1 74 8.6 21.7 22.1 55.9 30 76 7.9 20.1 20.9 53.1 29 73.5 17.7 44.9 29.6 75.1 41.1 104.1 4.7 12.1 11.9 30.3 16 40.7 4.1 10.3 10.7 27.1 14.8 37.5 19.7 50.1 25.1 63.3 28.8 70.2 14.4 27.2 35.8 47.9 60.8 58.9 4.1 1.8 11.6 5.2 16.5 7.6 11.9 5.7 12.1 5.8 17.4 4.1 2.7-.8 11-1.7 19.6-2 8.3-.3 18.6-.7 23-.9 9.1-.3 15.7-2.8 20.3-7.5 1.5-1.6 5.3-4.3 8.4-6 18.7-10.2 35.2-25.8 48.3-45.7 4.1-6.2 7.5-11.6 7.5-11.9 0-.3 1.6-3.8 3.5-7.8s5.7-13.2 8.5-20.3c2.8-7.2 5.5-13.9 6-15 .8-1.9 26.4-67 33.8-86 3.2-8.4 10.6-27.1 26.5-67.5 19.6-49.7 40.6-103.2 45.2-115 4.6-11.8 21.1-53.6 72.2-183.5 6.9-17.6 21.8-55.4 33-84s22.4-57 24.8-63c2.4-6.1 7.8-19.8 12-30.5s11.2-28.5 15.5-39.5c13.1-33.3 36.8-93.4 55.4-141 9.7-24.8 18.1-45.9 18.6-47 .5-1.1 3.3-8.3 6.3-16 3-7.7 14.1-36.1 24.7-63 10.7-27 23-58.5 27.6-70l8.2-21 13.9.4c54.2 1.4 100.7-20.7 133.3-63.3 46.7-61 45.9-137.4-1.9-193.1-18-20.8-43.6-39.4-70.2-50.8-9.9-4.2-26.9-9.1-35.4-10.2-3.3-.4-6.3-.9-6.6-1.1-.4-.2 0-3.4.7-7 .8-3.7 2.5-12.9 3.9-20.6l2.4-13.8 6.9-6.8c8.2-7.9 16.3-20.1 18.9-28.3 1.4-4.5 2.1-5.7 3.3-5.2 2.8 1.3 14.9 1.1 19.5-.2 16.5-5 34.2-20.6 43.4-38.4 12.7-24.4 8.6-49.5-12.2-74.9-3.2-4-5.8-7.4-5.6-7.6 22.6-15.7 37-38.9 52-83.8 3.8-11.5 9.1-32 10.5-40.3.3-2.1.7-4.5.9-5.4 5-27.1 5.4-65.4 1-96.6-.8-6.1-1.7-11.7-2-12.5-.5-1.7-1.3-5.9-2.1-11-.3-1.9-.9-4.9-1.4-6.5-.5-1.7-1.2-4.1-1.4-5.5-2-9.8-10.1-34.6-14.7-44.8-1.6-3.4-2.9-6.5-2.9-6.8 0-.7-9.9-20.5-13.4-26.9-6.2-11.1-22.1-33.8-31.9-45.5-10.5-12.5-29.8-32-39.2-39.5-2.7-2.2-5.2-4.3-5.5-4.6-1.3-1.5-17.4-13.3-25.5-18.6-9.8-6.6-25.3-15.7-34.5-20.3l-5.8-2.9 2-6.3c3.4-10.8 9-36.8 10.4-48.3.2-1.7.6-4.4.8-6 2.2-12.7 2.8-50.3 1.2-67.9-4-45.3-20.1-95.9-43.9-138.3-5.5-9.7-20.5-32.8-25.1-38.4-1.1-1.5-3.2-4.1-4.6-5.9-3.3-4.3-13-15.8-15.5-18.5-18.2-19.3-29-29.5-43.5-41-4.1-3.3-7.7-6.2-8-6.5-3-3.3-30.8-21.7-46-30.4-48.2-27.7-108.2-48.3-157.5-54.1-2.7-.4-5.7-.8-6.5-1-.8-.2-4.6-.7-8.5-1-3.8-.3-8.3-.8-10-1-6.4-.8-53.1-2.5-53.8-1.9zM946.9 1377.5c3.5.5 5.4 1.6 8.2 4.6 3.7 3.9 3.6 4.9-.3 2.8-5-2.7-34.7-4.7-42.7-2.8-7 1.6-5.9.2 1.6-2 12.2-3.6 21.4-4.4 33.2-2.6zm1010.2 431.2c-1.2 2-1.4 1.4-.5-1.2.4-.9.9-1.4 1.1-1.1.3.2 0 1.3-.6 2.3zm-2 5c-1.2 2-1.4 1.4-.5-1.2.4-.9.9-1.4 1.1-1.1.3.2 0 1.3-.6 2.3zm-3 8c-1.2 2-1.4 1.4-.5-1.2.4-.9.9-1.4 1.1-1.1.3.2 0 1.3-.6 2.3zm-4 10c-1.2 2-1.4 1.4-.5-1.2.4-.9.9-1.4 1.1-1.1.3.2 0 1.3-.6 2.3zm-2 5c-1.2 2-1.4 1.4-.5-1.2.4-.9.9-1.4 1.1-1.1.3.2 0 1.3-.6 2.3zm-2 5c-1.2 2-1.4 1.4-.5-1.2.4-.9.9-1.4 1.1-1.1.3.2 0 1.3-.6 2.3zm-4 10c-1.2 2-1.4 1.4-.5-1.2.4-.9.9-1.4 1.1-1.1.3.2 0 1.3-.6 2.3zm-3 8c-1.2 2-1.4 1.4-.5-1.2.4-.9.9-1.4 1.1-1.1.3.2 0 1.3-.6 2.3zm-5.3 13.4c-.6 1.6-1.2 2.8-1.4 2.6-.5-.5 1.3-5.7 2-5.7.3 0 0 1.4-.6 3.1zm-2.7 6.6c-1.2 2-1.4 1.4-.5-1.2.4-.9.9-1.4 1.1-1.1.3.2 0 1.3-.6 2.3zm-3 8.7c-1.4 3.6-2.2 3.3-.9-.5.6-1.6 1.2-2.8 1.4-2.6.3.2 0 1.6-.5 3.1zm-594 9.3c1.3 1.6 1.2 1.7-.3.4-1.7-1.3-2.2-2.1-1.4-2.1.2 0 1 .8 1.7 1.7zm77.4 3.3c-.3.5-1.2 1-1.8 1-.7 0-.6-.4.3-1 1.9-1.2 2.3-1.2 1.5 0zm510.6 1.7c-1.2 2-1.4 1.4-.5-1.2.4-.9.9-1.4 1.1-1.1.3.2 0 1.3-.6 2.3zm-3 8c-1.2 2-1.4 1.4-.5-1.2.4-.9.9-1.4 1.1-1.1.3.2 0 1.3-.6 2.3zm-533.4.9c-.3.3-1.2.4-1.9.1-.8-.3-.5-.6.6-.6 1.1-.1 1.7.2 1.3.5zm529.6 8.9c-.3.9-.8 1.4-1 1.1-.3-.3-.2-.9.2-1.5.9-1.6 1.5-1.3.8.4zm-2 5c-.3.9-.8 1.4-1 1.1-.3-.3-.2-.9.2-1.5.9-1.6 1.5-1.3.8.4zm-2.2 4.8c-1 .9-1.1.8-.5-.6.3-1 .9-1.5 1.2-1.2.3.3 0 1.1-.7 1.8zm-.8 3.2c-.3.9-.8 1.4-1 1.1-.3-.3-.2-.9.2-1.5.9-1.6 1.5-1.3.8.4zm-8.2 20.2c-1.2 2-1.4 1.4-.5-1.2.4-.9.9-1.4 1.1-1.1.3.2 0 1.3-.6 2.3zm-394.4 19.5c-.3.8-.6.5-.6-.6-.1-1.1.2-1.7.5-1.3.3.3.4 1.2.1 1.9zm-296.8 35.8c0 1-.3.8-.9-.5-1.2-2.7-1.2-4.3 0-2.5.5.8.9 2.2.9 3zm664.3 13.2c-.8.8-.9.4-.5-1.3.4-1.3.8-1.8 1.1-1 .2.7-.1 1.8-.6 2.3zm-658.8.4c.3.8.2 1.2-.4.9-.6-.3-1-1-1-1.6 0-1.4.7-1.1 1.4.7zm272.9 1.9c-.3.9-.8 1.4-1 1.1-.3-.3-.2-.9.2-1.5.9-1.6 1.5-1.3.8.4zm-267.9 8.1c.3.8.2 1.2-.4.9-.6-.3-1-1-1-1.6 0-1.4.7-1.1 1.4.7zm641.9 19.9c-.3.9-.8 1.4-1 1.1-.3-.3-.2-.9.2-1.5.9-1.6 1.5-1.3.8.4zm-628.2 1.2c1.3 1.6 1.2 1.7-.3.4-1-.7-1.8-1.5-1.8-1.7 0-.8.8-.3 2.1 1.3zm610 44.6c-1 .9-1.1.8-.5-.6.3-1 .9-1.5 1.2-1.2.3.3 0 1.1-.7 1.8zm-557.6-.3c.3.6-.1.7-.9.4-1.8-.7-2.1-1.4-.7-1.4.6 0 1.3.4 1.6 1z"/></svg>