<svg aria-hidden="true" style="width:0;height:0;position:absolute;overflow:hidden" xmlns="http://www.w3.org/2000/svg"><defs><symbol id="icon-arrow" viewBox="0 0 82 32"><path d="M81.414 17.414a2 2 0 0 0 0-2.828L68.686 1.858a2 2 0 1 0-2.828 2.828L77.172 16 65.858 27.314a2 2 0 1 0 2.828 2.828l12.728-12.728zM0 18h80v-4H0v4z"/></symbol><symbol id="icon-arrow-right-bold" viewBox="0 0 32 32"><path d="M10.586 3.272a2 2 0 0 0 0 2.828l9.9 9.9-9.9 9.9a1.998 1.998 0 0 0 .025 2.804 2.001 2.001 0 0 0 2.804.025l11.314-11.314a2 2 0 0 0 0-2.828L13.415 3.273a2 2 0 0 0-2.828 0z"/></symbol><symbol id="icon-btn-mob-menu" viewBox="0 0 32 32"><path fill="#fff" style="fill:var(--color1,#fff)" d="M26.733 14.667H5.266c-.7 0-1.267.567-1.267 1.267v.133c0 .7.567 1.267 1.267 1.267h21.467c.7 0 1.267-.567 1.267-1.267v-.133c0-.7-.567-1.267-1.267-1.267zM26.733 21.333H5.266c-.7 0-1.267.567-1.267 1.267v.133c0 .7.567 1.267 1.267 1.267h21.467c.7 0 1.267-.567 1.267-1.267V22.6c0-.7-.567-1.267-1.267-1.267zM26.733 8H5.266c-.7 0-1.267.567-1.267 1.267V9.4c0 .7.567 1.267 1.267 1.267h21.467c.7 0 1.267-.567 1.267-1.267v-.133C28 8.567 27.433 8 26.733 8z"/></symbol><symbol id="icon-close" viewBox="0 0 32 32"><path fill="#fcfcfc" style="fill:var(--color2,#fcfcfc)" d="M23.884 6.706 16 14.59 8.116 6.706a.995.995 0 0 0-1.38.031 1 1 0 0 0-.031 1.38l7.88 7.884-7.882 7.882a1.002 1.002 0 0 0-.018 1.427.998.998 0 0 0 1.427-.015l7.886-7.882 7.884 7.884a1 1 0 0 0 1.38-.03 1 1 0 0 0 .03-1.38l-7.884-7.884 7.884-7.886a1.002 1.002 0 0 0 .018-1.427.998.998 0 0 0-1.427.015v.002z"/></symbol><symbol id="icon-close-line" viewBox="0 0 32 32"><path d="m17.253 15.751 7.369-7.317a.875.875 0 0 0-.047-1.198.893.893 0 0 0-1.206-.046L16 14.507 8.631 7.181a.896.896 0 0 0-1.262 0 .885.885 0 0 0 0 1.254l7.378 7.317-7.378 7.317a.873.873 0 0 0-.249.992.883.883 0 0 0 .503.5.896.896 0 0 0 1-.247l7.378-7.317 7.369 7.317a.894.894 0 0 0 1.206-.046.875.875 0 0 0 .047-1.198l-7.369-7.317z"/></symbol><symbol id="facebook" viewBox="0 0 32 32"><path fill="#f8d24e" style="fill:var(--color3,#f8d24e)" d="M16 32c8.837 0 16-7.163 16-16S24.837 0 16 0 0 7.163 0 16s7.163 16 16 16z"/><path d="M20.446 15.982h-2.61v9.619h-3.955v-9.619H12v-3.38h1.881v-2.187c0-1.564.739-4.014 3.99-4.014l2.929.012v3.281h-2.125c-.349 0-.839.175-.839.921v1.989h2.955l-.346 3.377z"/></symbol><symbol id="github" viewBox="0 0 32 32"><path fill="#f8d24e" style="fill:var(--color3,#f8d24e)" d="M32 16c0 8.837-7.163 16-16 16S0 24.837 0 16 7.163 0 16 0s16 7.163 16 16z"/><path d="M16 6.588c-5.169 0-9.412 4.242-9.412 9.412 0 4.411 3.095 8.419 7.206 9.412v-3.114a2.307 2.307 0 0 1-1.197-.03c-.556-.164-1.008-.535-1.344-1.1-.214-.361-.593-.752-.988-.723l-.097-1.099c.855-.073 1.595.521 2.034 1.259.195.328.419.52.708.605.278.082.578.043.926-.08.088-.698.407-.959.648-1.326v-.001c-2.451-.366-3.428-1.666-3.816-2.693-.514-1.363-.238-3.066.671-4.142.018-.021.05-.076.037-.114-.417-1.258.091-2.299.11-2.41.481.142.559-.143 2.089.786l.264.159c.111.066.076.028.186.02A8.031 8.031 0 0 1 16 11.131a8.016 8.016 0 0 1 2.002.285l.086.009c-.007-.001.023-.005.075-.036 1.911-1.157 1.842-.779 2.355-.946.019.111.519 1.169.107 2.411-.056.171 1.657 1.739.708 4.256-.388 1.027-1.365 2.328-3.816 2.693v.001c.314.479.692.734.69 1.722v3.887c4.111-.993 7.206-5 7.206-9.412 0-5.169-4.242-9.412-9.412-9.412z"/></symbol><symbol id="telegram" viewBox="0 0 32 32"><path fill="#f8d24e" style="fill:var(--color3,#f8d24e)" d="M32 16c0 8.837-7.163 16-16 16S0 24.837 0 16 7.163 0 16 0s16 7.163 16 16z"/><path d="m12.869 18.375-.318 4.169c.454 0 .651-.182.887-.401l2.13-1.9 4.415 3.017c.81.421 1.38.199 1.598-.695l2.898-12.672.001-.001c.257-1.117-.433-1.554-1.222-1.28L6.226 14.698c-1.162.421-1.145 1.026-.198 1.3l4.354 1.264 10.115-5.907c.476-.294.909-.131.553.163l-8.182 6.857z"/></symbol><symbol id="icon-icecream" viewBox="0 0 32 32"><path fill="#fffde9" style="fill:var(--color1,#fffde9)" d="M18 6c0-2-1.5-3-2-4.5C15.5 3 14 4 14 6a2 2 0 0 0 4 0z"/><path fill="#ececd8" style="fill:var(--color2,#ececd8)" d="M14 6c2 0 2.5-2 2-4.5C16.5 3 18 4 18 6a2 2 0 0 1-4 0z"/><path fill="#ffd8b1" style="fill:var(--color3,#ffd8b1)" d="M22 13a1 1 0 0 1-1 1l-5 16.5L11 14a1 1 0 1 1 0-2h10a1 1 0 0 1 1 1z"/><path fill="#ffcaa9" style="fill:var(--color4,#ffcaa9)" d="M12.971 20.5c3.029 0 5.529-3 5.529-6.5H21l-5 16-3.029-9.5z"/><path fill="#ffcaa9" style="fill:var(--color4,#ffcaa9)" d="M20.546 15.5h-9.091l-.454-1.5h10z"/><path fill="#fffde9" style="fill:var(--color1,#fffde9)" d="M19.5 9h-7a1.5 1.5 0 1 0 0 3h7a1.5 1.5 0 1 0 0-3zM18 6h-4a1.5 1.5 0 1 0 0 3h4a1.5 1.5 0 1 0 0-3z"/><path fill="#fffde9" style="fill:var(--color1,#fffde9)" d="M17.5 18a1 1 0 0 1-1-1v-6h2v6a1 1 0 0 1-1 1z"/><path fill="#ececd8" style="fill:var(--color2,#ececd8)" d="M17.5 18a1 1 0 0 1-1-1v-5h2v5a1 1 0 0 1-1 1z"/><path fill="#ff7bac" style="fill:var(--color5,#ff7bac)" d="M25.5 7.5h-4v-4a2 2 0 0 1 6 2 2 2 0 0 1-2 2z"/><path fill="#fd58a1" style="fill:var(--color6,#fd58a1)" d="M21.5 7.5c2.211 0 4-1.789 4-4a2 2 0 0 1 0 4h-4z"/><path fill="#ececd8" style="fill:var(--color2,#ececd8)" d="M14 9c1.658 0 3-1.342 3-3h1a1.5 1.5 0 1 1 0 3h-4zM15.5 12c1.658 0 3-1.342 3-3h1a1.5 1.5 0 1 1 0 3h-4z"/><path fill="#272a56" style="fill:var(--color7,#272a56)" d="M25.958 3.042A2.504 2.504 0 0 0 23.5 1 2.503 2.503 0 0 0 21 3.5v3.793l-1.234 1.234a.971.971 0 0 0-.056-.005c.18-.3.29-.647.29-1.021 0-.939-.652-1.723-1.525-1.937-.117-1.16-.683-2.007-1.192-2.764-.329-.49-.64-.951-.809-1.458a.5.5 0 0 0-.95 0c-.169.507-.479.969-.809 1.458-.508.756-1.074 1.604-1.191 2.763A1.998 1.998 0 0 0 11.999 7.5c0 .375.11.722.29 1.021a1.996 1.996 0 0 0-1.79 1.979c0 .374.11.722.29 1.021A1.499 1.499 0 0 0 9.499 13c0 .692.473 1.271 1.111 1.442l4.91 16.203a.5.5 0 0 0 .957 0l4.91-16.203A1.498 1.498 0 0 0 22.498 13c0-.755-.563-1.376-1.29-1.479.18-.3.29-.646.29-1.021 0-.626-.295-1.179-.747-1.546L21.705 8h3.793c1.378 0 2.5-1.122 2.5-2.5a2.504 2.504 0 0 0-2.042-2.458zm-10.412.316c.153-.228.309-.459.454-.7.145.24.3.472.453.7.451.671.878 1.313 1.005 2.142h-2.916c.127-.829.553-1.47 1.005-2.142zM14 6.5h4a1.001 1.001 0 0 1 0 2h-4a1 1 0 0 1 0-2zm-1.5 3h7a1 1 0 0 1 0 2h-1a.5.5 0 0 0-.5.5v5a.5.5 0 0 1-1 0v-5a.5.5 0 0 0-.5-.5h-4a1 1 0 0 1 0-2zm-1.5 3h5v1h-5a.5.5 0 0 1 0-1zm5 16.276L11.674 14.5H16V17c0 .827.673 1.5 1.5 1.5S19 17.827 19 17v-2.5h1.326L16 28.776zM21.5 13a.5.5 0 0 1-.5.5h-2v-1h2a.5.5 0 0 1 .5.5zm4-6H22V3.5c0-.827.673-1.5 1.5-1.5s1.5.673 1.5 1.5a.5.5 0 0 0 .5.5c.827 0 1.5.673 1.5 1.5S26.327 7 25.5 7z"/></symbol></defs></svg>