<svg width="20" height="20" viewBox="0 0 20 20" fill="none" xmlns="http://www.w3.org/2000/svg">
<g clip-path="url(#clip0_10674_17376)">
<path d="M10.7831 9.8445L15.3887 5.27147C15.4797 5.16595 15.5272 5.0302 15.5218 4.89137C15.5164 4.75254 15.4585 4.62084 15.3595 4.5226C15.2606 4.42436 15.128 4.3668 14.9881 4.36144C14.8483 4.35608 14.7116 4.4033 14.6053 4.49367L9.99977 9.0667L5.39421 4.48816C5.2896 4.38428 5.14771 4.32593 4.99977 4.32593C4.85182 4.32593 4.70994 4.38428 4.60532 4.48816C4.50071 4.59203 4.44194 4.73292 4.44194 4.87982C4.44194 5.02672 4.50071 5.1676 4.60532 5.27147L9.21643 9.8445L4.60532 14.4175C4.54717 14.467 4.49993 14.5278 4.46659 14.5963C4.43324 14.6647 4.4145 14.7392 4.41155 14.8152C4.40859 14.8912 4.42148 14.9669 4.44941 15.0377C4.47734 15.1085 4.51971 15.1728 4.57385 15.2266C4.62799 15.2803 4.69274 15.3224 4.76403 15.3501C4.83532 15.3779 4.91162 15.3907 4.98813 15.3877C5.06464 15.3848 5.13972 15.3662 5.20864 15.3331C5.27757 15.3 5.33885 15.2531 5.38866 15.1953L9.99977 10.6223L14.6053 15.1953C14.7116 15.2857 14.8483 15.3329 14.9881 15.3276C15.128 15.3222 15.2606 15.2646 15.3595 15.1664C15.4585 15.0682 15.5164 14.9365 15.5218 14.7976C15.5272 14.6588 15.4797 14.5231 15.3887 14.4175L10.7831 9.8445Z" fill="#131313"/>
</g>
<defs>
<clipPath id="clip0_10674_17376">
<rect width="20" height="20" fill="white"/>
</clipPath>
</defs>
</svg>
