<svg aria-hidden="true" style="position: absolute; width: 0; height: 0; overflow: hidden;" version="1.1"
    xmlns="http://www.w3.org/2000/svg"
    xmlns:xlink="http://www.w3.org/1999/xlink">
    <defs>
        <symbol id="icon-arrow" viewBox="0 0 82 32">
            <path d="M81.414 17.414c0.781-0.781 0.781-2.047 0-2.828l-12.728-12.728c-0.781-0.781-2.047-0.781-2.828 0s-0.781 2.047 0 2.828l11.314 11.314-11.314 11.314c-0.781 0.781-0.781 2.047 0 2.828s2.047 0.781 2.828 0l12.728-12.728zM0 18h80v-4h-80v4z"></path>
        </symbol>
        <symbol id="icon-arrow-right-bold" viewBox="0 0 32 32">
            <path d="M10.586 3.272c-0.375 0.375-0.586 0.884-0.586 1.414s0.211 1.039 0.586 1.414l9.9 9.9-9.9 9.9c-0.364 0.377-0.566 0.882-0.561 1.407s0.215 1.026 0.586 1.397c0.371 0.371 0.872 0.581 1.397 0.586s1.030-0.197 1.407-0.561l11.314-11.314c0.375-0.375 0.586-0.884 0.586-1.414s-0.211-1.039-0.586-1.414l-11.314-11.314c-0.375-0.375-0.884-0.586-1.414-0.586s-1.039 0.211-1.414 0.586z"></path>
        </symbol>
        <symbol id="icon-btn-mob-menu" viewBox="0 0 32 32">
            <path fill="#fff" style="fill: var(--color1, #fff)" d="M26.733 14.667h-21.467c-0.7 0-1.267 0.567-1.267 1.267v0.133c0 0.7 0.567 1.267 1.267 1.267h21.467c0.7 0 1.267-0.567 1.267-1.267v-0.133c0-0.7-0.567-1.267-1.267-1.267z"></path>
            <path fill="#fff" style="fill: var(--color1, #fff)" d="M26.733 21.333h-21.467c-0.7 0-1.267 0.567-1.267 1.267v0.133c0 0.7 0.567 1.267 1.267 1.267h21.467c0.7 0 1.267-0.567 1.267-1.267v-0.133c0-0.7-0.567-1.267-1.267-1.267z"></path>
            <path fill="#fff" style="fill: var(--color1, #fff)" d="M26.733 8h-21.467c-0.7 0-1.267 0.567-1.267 1.267v0.133c0 0.7 0.567 1.267 1.267 1.267h21.467c0.7 0 1.267-0.567 1.267-1.267v-0.133c0-0.7-0.567-1.267-1.267-1.267z"></path>
        </symbol>
        <symbol id="icon-close" viewBox="0 0 32 32">
            <path fill="#fcfcfc" style="fill: var(--color2, #fcfcfc)" d="M23.884 6.706l-7.884 7.884-7.884-7.884c-0.19-0.174-0.439-0.267-0.696-0.261s-0.502 0.11-0.684 0.292c-0.182 0.182-0.286 0.427-0.292 0.684s0.088 0.506 0.261 0.696l7.88 7.884-7.882 7.882c-0.096 0.092-0.173 0.202-0.226 0.324s-0.081 0.253-0.083 0.386 0.023 0.265 0.073 0.388c0.050 0.123 0.124 0.235 0.218 0.329s0.206 0.169 0.329 0.219 0.255 0.075 0.388 0.074c0.133-0.002 0.264-0.029 0.386-0.082s0.232-0.13 0.324-0.226l7.886-7.882 7.884 7.884c0.19 0.174 0.439 0.267 0.696 0.262s0.502-0.11 0.684-0.292c0.182-0.182 0.286-0.427 0.292-0.684s-0.088-0.506-0.262-0.696l-7.884-7.884 7.884-7.886c0.096-0.092 0.173-0.202 0.226-0.324s0.081-0.253 0.083-0.386c0.002-0.133-0.023-0.265-0.073-0.388s-0.124-0.235-0.218-0.329c-0.094-0.094-0.206-0.169-0.329-0.219s-0.255-0.075-0.388-0.074-0.264 0.029-0.386 0.082c-0.122 0.053-0.232 0.13-0.324 0.226v0.002z"></path>
        </symbol>
        <symbol id="icon-close-line" viewBox="0 0 32 32">
            <path d="M17.253 15.751l7.369-7.317c0.146-0.169 0.222-0.386 0.213-0.608s-0.101-0.433-0.26-0.59c-0.158-0.157-0.37-0.249-0.594-0.258s-0.442 0.067-0.612 0.212l-7.369 7.317-7.369-7.326c-0.167-0.166-0.394-0.26-0.631-0.26s-0.464 0.093-0.631 0.26c-0.167 0.166-0.261 0.392-0.261 0.627s0.094 0.46 0.261 0.627l7.378 7.317-7.378 7.317c-0.093 0.079-0.169 0.176-0.222 0.286s-0.083 0.229-0.088 0.35 0.016 0.243 0.061 0.356c0.045 0.113 0.112 0.216 0.199 0.302s0.19 0.153 0.304 0.198c0.114 0.044 0.236 0.065 0.359 0.060s0.243-0.034 0.353-0.087 0.208-0.128 0.288-0.22l7.378-7.317 7.369 7.317c0.17 0.145 0.389 0.22 0.612 0.212s0.436-0.101 0.594-0.258c0.158-0.157 0.251-0.368 0.26-0.59s-0.067-0.439-0.213-0.608l-7.369-7.317z"></path>
        </symbol>
        <symbol id="facebook" viewBox="0 0 32 32">
            <path fill="#f8d24e" style="fill: var(--color3, #f8d24e)" d="M16 32c8.837 0 16-7.163 16-16s-7.163-16-16-16c-8.837 0-16 7.163-16 16s7.163 16 16 16z"></path>
            <path d="M20.446 15.982h-2.61v9.619h-3.955v-9.619h-1.881v-3.38h1.881v-2.187c0-1.564 0.739-4.014 3.99-4.014l2.929 0.012v3.281h-2.125c-0.349 0-0.839 0.175-0.839 0.921v1.989h2.955l-0.346 3.377z"></path>
        </symbol>
        <symbol id="github" viewBox="0 0 32 32">
            <path fill="#f8d24e" style="fill: var(--color3, #f8d24e)" d="M32 16c0 8.837-7.163 16-16 16s-16-7.163-16-16c0-8.837 7.163-16 16-16s16 7.163 16 16z"></path>
            <path d="M16 6.588c-5.169 0-9.412 4.242-9.412 9.412 0 4.411 3.095 8.419 7.206 9.412v-3.114c-0.407 0.089-0.782 0.092-1.197-0.030-0.556-0.164-1.008-0.535-1.344-1.1-0.214-0.361-0.593-0.752-0.988-0.723l-0.097-1.099c0.855-0.073 1.595 0.521 2.034 1.259 0.195 0.328 0.419 0.52 0.708 0.605 0.278 0.082 0.578 0.043 0.926-0.080 0.088-0.698 0.407-0.959 0.648-1.326v-0.001c-2.451-0.366-3.428-1.666-3.816-2.693-0.514-1.363-0.238-3.066 0.671-4.142 0.018-0.021 0.050-0.076 0.037-0.114-0.417-1.258 0.091-2.299 0.11-2.41 0.481 0.142 0.559-0.143 2.089 0.786l0.264 0.159c0.111 0.066 0.076 0.028 0.186 0.020 0.639-0.173 1.312-0.269 1.975-0.278 0.668 0.009 1.337 0.104 2.002 0.285l0.086 0.009c-0.007-0.001 0.023-0.005 0.075-0.036 1.911-1.157 1.842-0.779 2.355-0.946 0.019 0.111 0.519 1.169 0.107 2.411-0.056 0.171 1.657 1.739 0.708 4.256-0.388 1.027-1.365 2.328-3.816 2.693v0.001c0.314 0.479 0.692 0.734 0.69 1.722v3.887c4.111-0.993 7.206-5 7.206-9.412 0-5.169-4.242-9.412-9.412-9.412v0z"></path>
        </symbol>
        <symbol id="telegram" viewBox="0 0 32 32">
            <path fill="#f8d24e" style="fill: var(--color3, #f8d24e)" d="M32 16c0 8.837-7.163 16-16 16s-16-7.163-16-16c0-8.837 7.163-16 16-16s16 7.163 16 16z"></path>
            <path d="M12.869 18.375l-0.318 4.169c0.454 0 0.651-0.182 0.887-0.401l2.13-1.9 4.415 3.017c0.81 0.421 1.38 0.199 1.598-0.695l2.898-12.672 0.001-0.001c0.257-1.117-0.433-1.554-1.222-1.28l-17.032 6.086c-1.162 0.421-1.145 1.026-0.198 1.3l4.354 1.264 10.115-5.907c0.476-0.294 0.909-0.131 0.553 0.163l-8.182 6.857z"></path>
        </symbol>
        <symbol id="icon-icecream" viewBox="0 0 32 32">
            <path fill="#fffde9" style="fill: var(--color1, #fffde9)" d="M18 6c0-2-1.5-3-2-4.5-0.5 1.5-2 2.5-2 4.5 0 1.104 0.896 2 2 2s2-0.896 2-2z"></path>
            <path fill="#ececd8" style="fill: var(--color2, #ececd8)" d="M14 6c2 0 2.5-2 2-4.5 0.5 1.5 2 2.5 2 4.5 0 1.104-0.895 2-2 2s-2-0.896-2-2z"></path>
            <path fill="#ffd8b1" style="fill: var(--color3, #ffd8b1)" d="M22 13v0c0 0.553-0.448 1-1 1v0l-5 16.5-5-16.5c-0.553 0-1-0.447-1-1v0c0-0.553 0.447-1 1-1h10c0.552 0 1 0.447 1 1z"></path>
            <path fill="#ffcaa9" style="fill: var(--color4, #ffcaa9)" d="M12.971 20.5c3.029 0 5.529-3 5.529-6.5h2.5l-5 16-3.029-9.5z"></path>
            <path fill="#ffcaa9" style="fill: var(--color4, #ffcaa9)" d="M20.546 15.5h-9.091l-0.454-1.5h10z"></path>
            <path fill="#fffde9" style="fill: var(--color1, #fffde9)" d="M19.5 9h-7c-0.829 0-1.5 0.671-1.5 1.5v0c0 0.829 0.671 1.5 1.5 1.5h7c0.828 0 1.5-0.671 1.5-1.5v0c0-0.829-0.672-1.5-1.5-1.5z"></path>
            <path fill="#fffde9" style="fill: var(--color1, #fffde9)" d="M18 6h-4c-0.829 0-1.5 0.671-1.5 1.5v0c0 0.829 0.671 1.5 1.5 1.5h4c0.828 0 1.5-0.671 1.5-1.5v0c0-0.829-0.672-1.5-1.5-1.5z"></path>
            <path fill="#fffde9" style="fill: var(--color1, #fffde9)" d="M17.5 18v0c-0.552 0-1-0.448-1-1v-6h2v6c0 0.552-0.448 1-1 1z"></path>
            <path fill="#ececd8" style="fill: var(--color2, #ececd8)" d="M17.5 18v0c-0.552 0-1-0.448-1-1v-5h2v5c0 0.552-0.448 1-1 1z"></path>
            <path fill="#ff7bac" style="fill: var(--color5, #ff7bac)" d="M25.5 7.5h-4v-4c0-1.104 0.895-2 2-2v0c1.105 0 2 0.896 2 2v0 0c1.105 0 2 0.896 2 2v0c0 1.104-0.895 2-2 2z"></path>
            <path fill="#fd58a1" style="fill: var(--color6, #fd58a1)" d="M21.5 7.5c2.211 0 4-1.789 4-4v0c1.105 0 2 0.896 2 2v0c0 1.104-0.895 2-2 2h-4z"></path>
            <path fill="#ececd8" style="fill: var(--color2, #ececd8)" d="M14 9c1.658 0 3-1.342 3-3h1c0.828 0 1.5 0.671 1.5 1.5v0c0 0.829-0.672 1.5-1.5 1.5h-4z"></path>
            <path fill="#ececd8" style="fill: var(--color2, #ececd8)" d="M15.5 12c1.658 0 3-1.342 3-3h1c0.828 0 1.5 0.671 1.5 1.5v0c0 0.829-0.672 1.5-1.5 1.5h-4z"></path>
            <path fill="#272a56" style="fill: var(--color7, #272a56)" d="M25.958 3.042c-0.216-1.161-1.236-2.042-2.458-2.042-1.378 0-2.5 1.122-2.5 2.5v3.793l-1.234 1.234c-0.018-0.002-0.037-0.004-0.056-0.005 0.18-0.3 0.29-0.647 0.29-1.021 0-0.939-0.652-1.723-1.525-1.937-0.117-1.16-0.683-2.007-1.192-2.764-0.329-0.49-0.64-0.951-0.809-1.458-0.068-0.204-0.259-0.342-0.475-0.342s-0.406 0.137-0.475 0.342c-0.169 0.507-0.479 0.969-0.809 1.458-0.508 0.756-1.074 1.604-1.191 2.763-0.873 0.214-1.525 0.998-1.525 1.937 0 0.375 0.11 0.722 0.29 1.021-1.002 0.107-1.79 0.947-1.79 1.979 0 0.374 0.11 0.722 0.29 1.021-0.727 0.104-1.29 0.724-1.29 1.479 0 0.692 0.473 1.271 1.111 1.442l4.91 16.203c0.064 0.211 0.258 0.355 0.479 0.355s0.414-0.144 0.478-0.355l4.91-16.203c0.638-0.172 1.111-0.751 1.111-1.442 0-0.755-0.563-1.376-1.29-1.479 0.18-0.3 0.29-0.646 0.29-1.021 0-0.626-0.295-1.179-0.747-1.546l0.954-0.954h3.793c1.378 0 2.5-1.122 2.5-2.5 0-1.222-0.881-2.242-2.042-2.458zM15.546 3.358c0.153-0.228 0.309-0.459 0.454-0.7 0.145 0.24 0.3 0.472 0.453 0.7 0.451 0.671 0.878 1.313 1.005 2.142h-2.916c0.127-0.829 0.553-1.47 1.005-2.142zM14 6.5h4c0.552 0 1 0.449 1 1s-0.448 1-1 1h-4c-0.552 0-1-0.448-1-1s0.448-1 1-1zM12.5 9.5h7c0.552 0 1 0.448 1 1s-0.448 1-1 1h-1c-0.276 0-0.5 0.223-0.5 0.5v5c0 0.276-0.224 0.5-0.5 0.5s-0.5-0.224-0.5-0.5v-5c0-0.277-0.224-0.5-0.5-0.5h-4c-0.552 0-1-0.448-1-1s0.448-1 1-1zM11 12.5h5v1h-5c-0.275 0-0.5-0.224-0.5-0.5s0.225-0.5 0.5-0.5zM16 28.776l-4.326-14.276h4.326v2.5c0 0.827 0.673 1.5 1.5 1.5s1.5-0.673 1.5-1.5v-2.5h1.326l-4.326 14.276zM21.5 13c0 0.276-0.224 0.5-0.5 0.5h-2v-1h2c0.276 0 0.5 0.224 0.5 0.5zM25.5 7h-3.5v-3.5c0-0.827 0.673-1.5 1.5-1.5s1.5 0.673 1.5 1.5c0 0.276 0.224 0.5 0.5 0.5 0.827 0 1.5 0.673 1.5 1.5s-0.673 1.5-1.5 1.5z"></path>
        </symbol>
    </defs>
</svg>
