<?xml version="1.0" standalone="no"?>
<!DOCTYPE svg PUBLIC "-//W3C//DTD SVG 20010904//EN"
 "http://www.w3.org/TR/2001/REC-SVG-20010904/DTD/svg10.dtd">
<svg version="1.0" xmlns="http://www.w3.org/2000/svg"
 width="3028.000000pt" height="3028.000000pt" viewBox="0 0 3028.000000 3028.000000"
 preserveAspectRatio="xMidYMid meet">
<metadata>
Created by potrace 1.14, written by Peter Selinger 2001-2017
</metadata>
<g transform="translate(0.000000,3028.000000) scale(0.100000,-0.100000)"
fill="#000000" stroke="none">
<path d="M16307 28254 c-1 -1 -78 -4 -172 -8 -93 -3 -183 -8 -200 -10 -16 -2
-66 -7 -110 -11 -44 -3 -87 -8 -95 -10 -8 -2 -42 -6 -75 -10 -33 -3 -85 -10
-115 -15 -30 -5 -73 -12 -95 -15 -22 -4 -87 -15 -145 -26 -58 -11 -116 -22
-130 -25 -173 -33 -502 -121 -710 -191 -529 -176 -948 -457 -1221 -818 -138
-183 -281 -449 -359 -665 -6 -19 -16 -44 -21 -55 -31 -71 -119 -431 -134 -550
-4 -27 -8 -57 -10 -65 -2 -8 -7 -55 -11 -105 -3 -49 -8 -97 -10 -105 -1 -8 -3
-21 -3 -27 -1 -7 -13 -13 -29 -13 -87 0 -513 -91 -707 -151 -175 -54 -207 -65
-350 -119 -430 -160 -870 -391 -1280 -669 -615 -418 -957 -768 -1178 -1208
-88 -177 -159 -400 -191 -603 -3 -14 -8 -45 -12 -70 -4 -25 -9 -58 -11 -75 -2
-16 -6 -133 -7 -260 -4 -319 26 -552 110 -853 38 -135 115 -354 146 -415 11
-22 18 -40 16 -42 -2 -2 -44 -30 -94 -64 -191 -127 -346 -325 -435 -556 -9
-24 -32 -96 -35 -110 -1 -5 -4 -21 -7 -35 -3 -14 -8 -36 -11 -50 -21 -93 -28
-287 -15 -391 13 -97 48 -233 75 -296 56 -127 178 -278 299 -373 32 -25 68
-54 82 -65 l23 -20 -21 -75 c-12 -41 -23 -84 -25 -95 -1 -11 -12 -63 -24 -115
-12 -52 -23 -106 -25 -120 -2 -14 -6 -47 -10 -75 -3 -27 -8 -60 -10 -73 -18
-113 -25 -456 -11 -587 4 -33 9 -87 12 -120 9 -96 52 -321 84 -441 67 -252
182 -515 304 -696 36 -54 64 -98 61 -98 -2 0 -26 5 -53 11 -118 25 -295 12
-425 -32 -246 -82 -502 -287 -734 -589 -271 -353 -415 -690 -462 -1080 -13
-106 -5 -358 14 -465 88 -500 389 -897 840 -1109 201 -95 520 -173 730 -180
39 -1 75 -5 80 -8 6 -4 17 -3 25 2 8 5 21 5 31 0 9 -5 19 -7 22 -3 4 3 39 7
79 9 82 4 105 7 243 29 54 8 99 14 100 13 1 -2 21 -52 44 -113 24 -60 49 -123
56 -140 7 -16 32 -79 55 -140 23 -60 48 -123 56 -140 7 -16 33 -82 57 -145 25
-63 80 -203 122 -310 42 -107 88 -224 102 -260 14 -36 31 -78 38 -95 7 -16 58
-145 113 -285 56 -140 139 -352 185 -470 47 -118 278 -705 515 -1305 398
-1008 509 -1290 629 -1595 25 -63 51 -128 58 -145 7 -16 74 -185 149 -375 74
-190 205 -523 291 -740 86 -217 221 -559 300 -760 79 -201 209 -531 290 -735
177 -449 296 -751 411 -1041 47 -121 119 -303 160 -407 41 -103 107 -271 148
-375 197 -501 251 -633 288 -702 144 -272 358 -479 608 -589 41 -18 116 -52
165 -76 119 -57 121 -58 174 -41 27 8 110 17 196 20 83 3 186 7 230 9 91 3
157 28 203 75 15 16 53 43 84 60 187 102 352 258 483 457 41 62 75 116 75 119
0 3 16 38 35 78 19 40 57 132 85 203 28 72 55 139 60 150 8 19 264 670 338
860 32 84 106 271 265 675 196 497 406 1032 452 1150 46 118 211 536 722 1835
69 176 218 554 330 840 112 286 224 570 248 630 24 61 78 198 120 305 42 107
112 285 155 395 131 333 368 934 554 1410 97 248 181 459 186 470 5 11 33 83
63 160 30 77 141 361 247 630 107 270 230 585 276 700 l82 210 139 -4 c542
-14 1007 207 1333 633 467 610 459 1374 -19 1931 -180 208 -436 394 -702 508
-99 42 -269 91 -354 102 -33 4 -63 9 -66 11 -4 2 0 34 7 70 8 37 25 129 39
206 l24 138 69 68 c82 79 163 201 189 283 14 45 21 57 33 52 28 -13 149 -11
195 2 165 50 342 206 434 384 127 244 86 495 -122 749 -32 40 -58 74 -56 76
226 157 370 389 520 838 38 115 91 320 105 403 3 21 7 45 9 54 50 271 54 654
10 966 -8 61 -17 117 -20 125 -5 17 -13 59 -21 110 -3 19 -9 49 -14 65 -5 17
-12 41 -14 55 -20 98 -101 346 -147 448 -16 34 -29 65 -29 68 0 7 -99 205
-134 269 -62 111 -221 338 -319 455 -105 125 -298 320 -392 395 -27 22 -52 43
-55 46 -13 15 -174 133 -255 186 -98 66 -253 157 -345 203 l-58 29 20 63 c34
108 90 368 104 483 2 17 6 44 8 60 22 127 28 503 12 679 -40 453 -201 959
-439 1383 -55 97 -205 328 -251 384 -11 15 -32 41 -46 59 -33 43 -130 158
-155 185 -182 193 -290 295 -435 410 -41 33 -77 62 -80 65 -30 33 -308 217
-460 304 -482 277 -1082 483 -1575 541 -27 4 -57 8 -65 10 -8 2 -46 7 -85 10
-38 3 -83 8 -100 10 -64 8 -531 25 -538 19z m-6838 -11749 c35 -5 54 -16 82
-46 37 -39 36 -49 -3 -28 -50 27 -347 47 -427 28 -70 -16 -59 -2 16 20 122 36
214 44 332 26z m10102 -4312 c-12 -20 -14 -14 -5 12 4 9 9 14 11 11 3 -2 0
-13 -6 -23z m-20 -50 c-12 -20 -14 -14 -5 12 4 9 9 14 11 11 3 -2 0 -13 -6
-23z m-30 -80 c-12 -20 -14 -14 -5 12 4 9 9 14 11 11 3 -2 0 -13 -6 -23z m-40
-100 c-12 -20 -14 -14 -5 12 4 9 9 14 11 11 3 -2 0 -13 -6 -23z m-20 -50 c-12
-20 -14 -14 -5 12 4 9 9 14 11 11 3 -2 0 -13 -6 -23z m-20 -50 c-12 -20 -14
-14 -5 12 4 9 9 14 11 11 3 -2 0 -13 -6 -23z m-40 -100 c-12 -20 -14 -14 -5
12 4 9 9 14 11 11 3 -2 0 -13 -6 -23z m-30 -80 c-12 -20 -14 -14 -5 12 4 9 9
14 11 11 3 -2 0 -13 -6 -23z m-53 -134 c-6 -16 -12 -28 -14 -26 -5 5 13 57 20
57 3 0 0 -14 -6 -31z m-27 -66 c-12 -20 -14 -14 -5 12 4 9 9 14 11 11 3 -2 0
-13 -6 -23z m-30 -87 c-14 -36 -22 -33 -9 5 6 16 12 28 14 26 3 -2 0 -16 -5
-31z m-5940 -93 c13 -16 12 -17 -3 -4 -17 13 -22 21 -14 21 2 0 10 -8 17 -17z
m774 -33 c-3 -5 -12 -10 -18 -10 -7 0 -6 4 3 10 19 12 23 12 15 0z m5106 -17
c-12 -20 -14 -14 -5 12 4 9 9 14 11 11 3 -2 0 -13 -6 -23z m-30 -80 c-12 -20
-14 -14 -5 12 4 9 9 14 11 11 3 -2 0 -13 -6 -23z m-5334 -9 c-3 -3 -12 -4 -19
-1 -8 3 -5 6 6 6 11 1 17 -2 13 -5z m5296 -89 c-3 -9 -8 -14 -10 -11 -3 3 -2
9 2 15 9 16 15 13 8 -4z m-20 -50 c-3 -9 -8 -14 -10 -11 -3 3 -2 9 2 15 9 16
15 13 8 -4z m-22 -48 c-10 -9 -11 -8 -5 6 3 10 9 15 12 12 3 -3 0 -11 -7 -18z
m-8 -32 c-3 -9 -8 -14 -10 -11 -3 3 -2 9 2 15 9 16 15 13 8 -4z m-82 -202
c-12 -20 -14 -14 -5 12 4 9 9 14 11 11 3 -2 0 -13 -6 -23z m-3944 -195 c-3 -8
-6 -5 -6 6 -1 11 2 17 5 13 3 -3 4 -12 1 -19z m-2968 -358 c0 -10 -3 -8 -9 5
-12 27 -12 43 0 25 5 -8 9 -22 9 -30z m6643 -132 c-8 -8 -9 -4 -5 13 4 13 8
18 11 10 2 -7 -1 -18 -6 -23z m-6588 -4 c3 -8 2 -12 -4 -9 -6 3 -10 10 -10 16
0 14 7 11 14 -7z m2729 -19 c-3 -9 -8 -14 -10 -11 -3 3 -2 9 2 15 9 16 15 13
8 -4z m-2679 -81 c3 -8 2 -12 -4 -9 -6 3 -10 10 -10 16 0 14 7 11 14 -7z
m6419 -199 c-3 -9 -8 -14 -10 -11 -3 3 -2 9 2 15 9 16 15 13 8 -4z m-6282 -12
c13 -16 12 -17 -3 -4 -10 7 -18 15 -18 17 0 8 8 3 21 -13z m6100 -446 c-10 -9
-11 -8 -5 6 3 10 9 15 12 12 3 -3 0 -11 -7 -18z m-5576 3 c3 -6 -1 -7 -9 -4
-18 7 -21 14 -7 14 6 0 13 -4 16 -10z"/>
</g>
</svg>
