<?xml version="1.0" standalone="no"?>
<!DOCTYPE svg PUBLIC "-//W3C//DTD SVG 20010904//EN"
 "http://www.w3.org/TR/2001/REC-SVG-20010904/DTD/svg10.dtd">
<svg version="1.0" xmlns="http://www.w3.org/2000/svg"
 width="700.000000pt" height="700.000000pt" viewBox="0 0 700.000000 700.000000"
 preserveAspectRatio="xMidYMid meet">
<metadata>
Created by potrace 1.14, written by Peter Selinger 2001-2017
</metadata>
<g transform="translate(0.000000,700.000000) scale(0.100000,-0.100000)"
fill="#000000" stroke="none">
<path d="M2275 6238 c-87 -32 -153 -92 -194 -178 -25 -54 -26 -61 -31 -305
l-5 -250 -663 -1 c-645 -1 -663 -1 -689 -20 -44 -33 -46 -66 -13 -174 16 -52
54 -176 84 -276 76 -253 102 -302 227 -424 84 -82 151 -127 258 -170 100 -41
113 -43 364 -47 l228 -4 -6 -52 c-3 -29 -8 -68 -10 -87 -2 -19 -7 -60 -10 -90
-4 -30 -8 -66 -10 -80 -2 -14 -6 -54 -10 -90 -4 -36 -8 -76 -10 -90 -2 -14 -6
-50 -10 -80 -3 -30 -8 -71 -10 -90 -3 -19 -7 -57 -10 -85 -5 -49 -12 -105 -20
-175 -3 -19 -7 -60 -10 -90 -3 -30 -8 -66 -10 -80 -2 -14 -6 -50 -10 -80 -3
-30 -7 -63 -8 -73 -2 -9 -26 -47 -53 -85 -58 -78 -85 -127 -109 -197 -43 -125
-45 -147 -41 -675 3 -553 3 -554 68 -745 45 -135 104 -243 207 -385 50 -69
210 -217 297 -275 90 -60 231 -130 320 -159 28 -9 102 -28 165 -41 l114 -24
865 0 c476 0 890 4 920 9 147 22 244 49 362 100 417 180 720 585 775 1037 9
73 10 951 1 1018 -17 127 -85 276 -169 370 -24 26 -29 44 -39 130 -6 55 -13
116 -15 135 -3 19 -7 53 -10 75 -8 77 -26 238 -30 275 -1 14 -5 43 -8 65 -4
22 -9 67 -12 100 -3 33 -8 71 -10 85 -2 14 -7 52 -10 85 -6 60 -14 128 -20
175 -2 14 -7 58 -11 98 l-7 72 244 0 c276 1 299 3 389 31 124 40 217 97 314
194 109 107 167 208 201 345 5 19 68 229 102 335 40 130 38 160 -16 193 -26
16 -84 17 -690 16 l-661 0 -1 230 c-1 225 -1 244 -14 293 -12 50 -75 131 -127
165 -70 46 -108 58 -184 58 -135 0 -257 -82 -304 -205 -21 -56 -22 -76 -24
-300 l-1 -240 -885 -1 -886 0 -1 240 c0 226 -2 245 -23 301 -31 80 -105 154
-183 183 -63 24 -169 29 -222 10z"/>
</g>
</svg>
